<?xml version="1.0" encoding="UTF-8"?>
<svg xmlns="http://www.w3.org/2000/svg" viewBox="0 0 227.87 77.04">
  <defs>
    <style>
      .cls-1 {
        fill: #fff;
      }

      .cls-2 {
        fill: #b487ce;
      }

      .cls-3 {
        fill: #48036F;
      }
    </style>
  </defs>
  <g id="_Слой_2" data-name="Слой 2">
    <rect class="cls-3" width="227.87" height="77.04" rx="11.96" ry="11.96"/>
  </g>
  <g id="_Слой_1" data-name="Слой 1">
    <g>
      <path class="cls-1" d="m29.8,51.21c-1.9,0-3.59-.44-5.08-1.31-1.49-.88-2.66-2.06-3.51-3.56-.85-1.5-1.28-3.2-1.28-5.09s.41-3.67,1.24-5.18c.83-1.51,1.96-2.69,3.4-3.55,1.44-.85,3.11-1.28,5-1.28,1.42,0,2.72.28,3.92.83,1.2.55,2.27,1.38,3.2,2.48.31.34.43.7.34,1.08-.08.38-.33.72-.74,1.01-.29.22-.62.29-1.01.22-.38-.07-.72-.28-1.01-.61-1.27-1.37-2.84-2.05-4.72-2.05-1.27,0-2.39.3-3.37.9-.97.6-1.73,1.42-2.27,2.47s-.81,2.27-.81,3.69.28,2.54.85,3.6c.56,1.06,1.35,1.89,2.36,2.5,1.01.61,2.16.92,3.46.92.89,0,1.68-.11,2.38-.32.7-.22,1.32-.56,1.87-1.04.34-.29.69-.44,1.06-.47.37-.02.7.08.99.32.36.31.56.66.61,1.04.05.38-.08.72-.4,1.01-1.73,1.61-3.9,2.41-6.52,2.41Z"/>
      <path class="cls-1" d="m51.47,51.21c-1.94,0-3.67-.43-5.17-1.28-1.5-.85-2.68-2.03-3.53-3.53-.85-1.5-1.28-3.22-1.28-5.17s.43-3.7,1.28-5.2,2.03-2.68,3.53-3.53c1.5-.85,3.21-1.28,5.13-1.28s3.62.43,5.11,1.28c1.49.85,2.66,2.03,3.53,3.53.86,1.5,1.31,3.23,1.33,5.2,0,1.94-.43,3.67-1.3,5.17-.86,1.5-2.04,2.68-3.53,3.53-1.49.85-3.19,1.28-5.11,1.28Zm-.04-2.95c1.32,0,2.48-.3,3.49-.9,1.01-.6,1.8-1.43,2.38-2.48.58-1.06.86-2.27.86-3.64s-.29-2.59-.86-3.65c-.58-1.07-1.37-1.9-2.38-2.5-1.01-.6-2.17-.9-3.49-.9s-2.45.3-3.46.9c-1.01.6-1.81,1.43-2.39,2.5-.59,1.07-.88,2.29-.88,3.65s.29,2.58.88,3.64c.59,1.06,1.39,1.88,2.39,2.48,1.01.6,2.16.9,3.46.9Z"/>
      <path class="cls-1" d="m75.23,51.24c-1.7,0-3.22-.39-4.54-1.17-1.32-.78-2.36-1.87-3.11-3.26-.76-1.39-1.13-2.98-1.13-4.75v-9.07c0-.48.16-.88.47-1.19.31-.31.71-.47,1.19-.47s.91.16,1.22.47c.31.31.47.71.47,1.19v9.07c0,1.2.26,2.26.77,3.19.52.92,1.22,1.65,2.12,2.18.9.53,1.93.79,3.08.79s2.12-.21,2.99-.63c.86-.42,1.54-1,2.03-1.73.49-.73.74-1.57.74-2.5l1.8.04c-.02,1.51-.38,2.87-1.08,4.07-.7,1.2-1.65,2.13-2.86,2.79-1.21.66-2.6.99-4.16.99Zm11.56,6.12c-.48,0-.87-.16-1.17-.47-.3-.31-.45-.72-.45-1.22v-4.61h-.68c-1.03,0-1.78-.24-2.25-.72-.47-.48-.7-1.22-.7-2.23v-15.12c0-.48.16-.88.47-1.19.31-.31.71-.47,1.19-.47s.88.16,1.19.47c.31.31.47.71.47,1.19v15.23h1.73c.5,0,.91.16,1.22.47.31.31.47.72.47,1.22v5.76c0,.5-.13.91-.4,1.22-.26.31-.62.47-1.08.47Z"/>
      <path class="cls-2" d="m101.11,51.21c-1.94,0-3.67-.43-5.17-1.28-1.5-.85-2.68-2.03-3.53-3.53-.85-1.5-1.28-3.22-1.28-5.17s.43-3.7,1.28-5.2,2.03-2.68,3.53-3.53c1.5-.85,3.21-1.28,5.13-1.28s3.62.43,5.11,1.28c1.49.85,2.66,2.03,3.53,3.53.86,1.5,1.31,3.23,1.33,5.2,0,1.94-.43,3.67-1.3,5.17-.86,1.5-2.04,2.68-3.53,3.53-1.49.85-3.19,1.28-5.11,1.28Zm-.04-2.95c1.32,0,2.48-.3,3.49-.9,1.01-.6,1.8-1.43,2.38-2.48.58-1.06.86-2.27.86-3.64s-.29-2.59-.86-3.65c-.58-1.07-1.37-1.9-2.38-2.5-1.01-.6-2.17-.9-3.49-.9s-2.45.3-3.46.9c-1.01.6-1.81,1.43-2.39,2.5-.59,1.07-.88,2.29-.88,3.65s.29,2.58.88,3.64c.59,1.06,1.39,1.88,2.39,2.48,1.01.6,2.16.9,3.46.9Z"/>
      <path class="cls-2" d="m118.14,51.1c-.48,0-.88-.16-1.19-.47-.31-.31-.47-.71-.47-1.19v-16.42c0-.5.16-.91.47-1.21.31-.3.71-.45,1.19-.45s.91.15,1.21.45c.3.3.45.7.45,1.21v16.42c0,.48-.15.88-.45,1.19-.3.31-.7.47-1.21.47Zm15.08,0c-.48,0-.88-.16-1.21-.49s-.49-.71-.49-1.17v-9.07c0-1.42-.26-2.57-.79-3.47-.53-.9-1.24-1.57-2.12-2.02-.89-.44-1.91-.67-3.06-.67-1.08,0-2.05.22-2.92.65-.86.43-1.55,1.01-2.07,1.73-.52.72-.77,1.55-.77,2.48h-2.16c.02-1.51.41-2.86,1.15-4.05.74-1.19,1.75-2.12,3.02-2.81,1.27-.68,2.7-1.03,4.28-1.03,1.68,0,3.18.35,4.5,1.06,1.32.71,2.36,1.75,3.13,3.11.77,1.37,1.15,3.04,1.15,5v9.07c0,.46-.16.85-.49,1.17-.32.32-.71.49-1.17.49Z"/>
      <path class="cls-2" d="m142.62,59.49c-.48,0-.88-.16-1.19-.47s-.47-.71-.47-1.19v-16.67c.02-1.87.47-3.56,1.35-5.08.88-1.51,2.06-2.7,3.55-3.56,1.49-.86,3.16-1.3,5-1.3s3.63.44,5.13,1.31c1.5.88,2.69,2.07,3.56,3.58.88,1.51,1.31,3.22,1.31,5.11s-.41,3.59-1.24,5.09c-.83,1.5-1.95,2.69-3.37,3.56-1.42.88-3.01,1.31-4.79,1.31-1.51,0-2.88-.31-4.1-.94-1.22-.62-2.26-1.46-3.1-2.52v10.08c0,.48-.15.88-.45,1.19-.3.31-.7.47-1.21.47Zm8.24-11.23c1.3,0,2.45-.31,3.47-.92,1.02-.61,1.82-1.45,2.41-2.52.59-1.07.88-2.26.88-3.58s-.29-2.55-.88-3.62c-.59-1.07-1.39-1.91-2.41-2.52-1.02-.61-2.17-.92-3.44-.92s-2.42.31-3.44.94c-1.02.62-1.82,1.46-2.39,2.52-.58,1.06-.86,2.26-.86,3.6s.29,2.51.86,3.58c.58,1.07,1.37,1.91,2.39,2.52,1.02.61,2.15.92,3.4.92Z"/>
      <path class="cls-2" d="m175.31,51.21c-1.94,0-3.67-.43-5.17-1.28-1.5-.85-2.68-2.03-3.53-3.53-.85-1.5-1.28-3.22-1.28-5.17s.43-3.7,1.28-5.2,2.03-2.68,3.53-3.53c1.5-.85,3.21-1.28,5.13-1.28s3.62.43,5.11,1.28c1.49.85,2.66,2.03,3.53,3.53.86,1.5,1.31,3.23,1.33,5.2,0,1.94-.43,3.67-1.3,5.17-.86,1.5-2.04,2.68-3.53,3.53-1.49.85-3.19,1.28-5.11,1.28Zm-.04-2.95c1.32,0,2.48-.3,3.49-.9,1.01-.6,1.8-1.43,2.38-2.48.58-1.06.86-2.27.86-3.64s-.29-2.59-.86-3.65c-.58-1.07-1.37-1.9-2.38-2.5-1.01-.6-2.17-.9-3.49-.9s-2.45.3-3.46.9c-1.01.6-1.81,1.43-2.39,2.5-.59,1.07-.88,2.29-.88,3.65s.29,2.58.88,3.64c.59,1.06,1.39,1.88,2.39,2.48,1.01.6,2.16.9,3.46.9Z"/>
      <path class="cls-2" d="m199.53,51.21c-1.9,0-3.59-.44-5.08-1.31-1.49-.88-2.66-2.06-3.51-3.56-.85-1.5-1.28-3.2-1.28-5.09s.41-3.67,1.24-5.18c.83-1.51,1.96-2.69,3.4-3.55,1.44-.85,3.11-1.28,5-1.28,1.42,0,2.72.28,3.92.83,1.2.55,2.27,1.38,3.2,2.48.31.34.43.7.34,1.08-.08.38-.33.72-.74,1.01-.29.22-.62.29-1.01.22-.38-.07-.72-.28-1.01-.61-1.27-1.37-2.84-2.05-4.72-2.05-1.27,0-2.39.3-3.37.9-.97.6-1.73,1.42-2.27,2.47s-.81,2.27-.81,3.69.28,2.54.85,3.6c.56,1.06,1.35,1.89,2.36,2.5,1.01.61,2.16.92,3.46.92.89,0,1.68-.11,2.38-.32.7-.22,1.32-.56,1.87-1.04.34-.29.69-.44,1.06-.47.37-.02.7.08.99.32.36.31.56.66.61,1.04.05.38-.08.72-.4,1.01-1.73,1.61-3.9,2.41-6.52,2.41Z"/>
    </g>
  </g>
</svg>